Genre:Drama | Horror | Thriller
Language:English
IMDb:http://www.imdb.com/title/tt1467304/
Source:BluRay.x264-DEPRAViTY

General
Complete name :The.Human.Centipede.2009.BRRip.XviD.Feel-Free
Format : AVI
Format/Info : Audio Video Interleave
File size : 1.52 GiB
Duration : 1h 31mn
Overall bit rate : 2 369 Kbps
Video #0
Muxing mode : Packed bitstream
Codec ID : XVID
Codec ID/Hint : XviD
Duration : 1h 31mn
Bit rate : 1 911 Kbps
Width : 720 pixels
Height : 384 pixels
Display aspect ratio : 1.875
Frame rate : 23.976 fps
Resolution : 24 bits
Colorimetry : 4:2:0
Scan type : Progressive
Bits/(Pixel*Frame) : 0.288
Stream size : 1.23 GiB (81%)
Writing library : XviD 1.2.1 (UTC 2008-12-04)
Audio #1
ID : 1
Format : AC-3
Format/Info : Audio Coding 3
Codec ID : 2000
Duration : 1h 31mn
Bit rate mode : Constant
Bit rate : 448 Kbps
Channel(s) : 6 channels
Channel positions : Front: L C R, Surround: L R, LFE
Sampling rate : 48.0 KHz
Stream size : 295 MiB (19%)
Alignment : Split accross interleaves
Interleave, duration : 42 ms (1.00 video frame)
Interleave, preload duration : 500 ms

Plot
Two pretty but ditsy American girls are on a road trip through Europe. In Germany, they end up alone at night with a broken car in the woods
